<?xml version="1.0" encoding="utf-8"?>
<!-- Generator: Adobe Illustrator 19.2.0, SVG Export Plug-In . SVG Version: 6.00 Build 0)  -->
<svg version="1.1"
	 id="svg3476" inkscape:version="0.91 r13725" sodipodi:docname="CSS3.svg" xmlns:cc="http://creativecommons.org/ns#" xmlns:dc="http://purl.org/dc/elements/1.1/" xmlns:inkscape="http://www.inkscape.org/namespaces/inkscape" xmlns:rdf="http://www.w3.org/1999/02/22-rdf-syntax-ns#" xmlns:sodipodi="http://sodipodi.sourceforge.net/DTD/sodipodi-0.dtd" xmlns:svg="http://www.w3.org/2000/svg"
	 xmlns="http://www.w3.org/2000/svg" xmlns:xlink="http://www.w3.org/1999/xlink" x="0px" y="0px" viewBox="0 0 400 400"
	 style="enable-background:new 0 0 400 400;" xml:space="preserve">
<style type="text/css">
	.st0{fill:#264DE4;}
	.st1{fill:#2965F1;}
	.st2{fill:#EBEBEB;}
	.st3{fill:#FFFFFF;}
</style>
<sodipodi:namedview  bordercolor="#666666" borderopacity="1.0" fit-margin-bottom="0" fit-margin-left="0" fit-margin-right="0" fit-margin-top="0" id="base" inkscape:current-layer="layer1" inkscape:cx="181.367" inkscape:cy="256" inkscape:document-units="px" inkscape:pageopacity="0.0" inkscape:pageshadow="2" inkscape:window-height="704" inkscape:window-maximized="1" inkscape:window-width="1366" inkscape:window-x="0" inkscape:window-y="27" inkscape:zoom="0.35" pagecolor="#ffffff" showgrid="false">
	</sodipodi:namedview>
<g id="layer1" transform="translate(-193.633,-276.3622)" inkscape:groupmode="layer" inkscape:label="Calque 1">
	<g id="g3013" transform="translate(119,276.3622)">
		<polygon id="polygon2989" class="st0" points="419.7,44.9 393.3,341.1 274.5,374 155.9,341.1 129.5,44.9 		"/>
		<polygon id="polygon2991" class="st1" points="370.7,322.2 393.2,69.1 274.6,69.1 274.6,348.8 		"/>
		<polygon id="polygon2993" class="st2" points="190.1,179 193.3,215.3 274.6,215.3 274.6,179 		"/>
		<polygon id="polygon2995" class="st2" points="274.6,105.4 274.5,105.4 183.5,105.4 186.8,141.8 274.6,141.8 		"/>
		<polygon id="polygon2997" class="st2" points="274.6,311.1 274.6,273.3 274.5,273.4 234,262.4 231.4,233.5 211.8,233.5 195,233.5 
			200,290.5 274.5,311.2 		"/>
		<polygon id="polygon3005" class="st3" points="319.2,215.3 315,262.4 274.5,273.4 274.5,311.1 349,290.5 349.5,284.4 358.1,188.7 
			359,179 365.5,105.4 274.5,105.4 274.5,141.8 325.7,141.8 322.4,179 274.5,179 274.5,215.3 		"/>
	</g>
</g>
</svg>
